<svg height='100px' width='100px'  fill="#FFFFFF" xmlns="http://www.w3.org/2000/svg" xmlns:xlink="http://www.w3.org/1999/xlink" version="1.1" x="0px" y="0px" viewBox="0 0 100 100" style="enable-background:new 0 0 100 100;" xml:space="preserve"><g><path d="M79.8,55.3c-6.1-1.5-10.9-6.5-12.1-12.7l-1.3-7c-0.1-0.8-0.7-1.4-1.4-1.6L50.4,30c-2.7-0.8-4.6-3.3-4.6-6.1v-0.1   c0-3.1-1.2-6.1-3.2-8.3l-0.1-0.1c-1.1-1.2-2.6-1.9-4.2-1.9c-1.6-0.1-3.1,0.5-4.3,1.7L13.7,35c0,0,0,0-0.1,0.1l-4.2,4.2   c-1.1,1.1-1.8,2.7-1.8,4.2c0,1.6,0.6,3.1,1.8,4.2l34.8,34.7H7c-1.1,0-2,0.9-2,2c0,1.1,0.9,2,2,2h82c3.3,0,6-2.7,6-6v-6   C95,65.4,88.8,57.5,79.8,55.3z M29.6,25c2.8,3.3,3.7,6.9,2.5,8.1c-1.2,1.2-4.8,0.3-8.2-2.6L29.6,25z M21,33.4   c3.1,2.7,6.6,4.2,9.5,4.2c1.7,0,3.3-0.5,4.4-1.7c3-3,1.8-8.8-2.5-13.8l4.3-4.2c0.4-0.4,0.9-0.5,1.4-0.5c0.5,0,1,0.2,1.3,0.6   l0.1,0.1c1.4,1.5,2.2,3.5,2.2,5.6v0.1c0,4.6,3.1,8.7,7.6,10l13.5,3.7l1.1,5.8c0.2,0.9,0.4,1.9,0.7,2.8l-8.2,2.4   c-1.1,0.3-1.7,1.4-1.3,2.5c0.3,0.9,1.1,1.4,1.9,1.4c0.2,0,0.4,0,0.6-0.1l8.7-2.6c0.9,1.5,2,2.9,3.2,4.1l-5.8,5   c-0.8,0.7-0.9,2-0.2,2.8c0.4,0.5,1,0.7,1.5,0.7c0.5,0,0.9-0.2,1.3-0.5l6.4-5.5c1.9,1.2,4,2.2,6.2,2.7c6.5,1.5,11.1,6.9,11.9,13.3   H54.7c-0.5,0-1-0.2-1.4-0.6L17.9,36.5L21,33.4z M91,80.5c0,1.1-0.9,2-2,2H50.7c-0.5,0-1-0.2-1.4-0.6l-37-37   c-0.4-0.4-0.6-0.9-0.6-1.4c0-0.5,0.2-1,0.6-1.4l2.8-2.8l35.5,35.5c1.1,1.1,2.6,1.8,4.2,1.8H91V80.5z"></path><path d="M7,76.5h18c1.1,0,2-0.9,2-2s-0.9-2-2-2H7c-1.1,0-2,0.9-2,2S5.9,76.5,7,76.5z"></path><path d="M7,66.5h10c1.1,0,2-0.9,2-2s-0.9-2-2-2H7c-1.1,0-2,0.9-2,2S5.9,66.5,7,66.5z"></path></g></svg>